<mxfile host="app.diagrams.net" agent="Mozilla/5.0 (Windows NT 10.0; Win64; x64) AppleWebKit/537.36 (KHTML, like Gecko) Chrome/137.0.0.0 Safari/537.36" version="27.1.6">
  <diagram name="Page-1" id="dsh27McQzMwFTFB7JAJY">
    <mxGraphModel dx="3595" dy="958" grid="1" gridSize="10" guides="1" tooltips="1" connect="1" arrows="1" fold="1" page="1" pageScale="1" pageWidth="850" pageHeight="1100" math="0" shadow="0">
      <root>
        <mxCell id="0" />
        <mxCell id="1" parent="0" />
        <mxCell id="vChHbSeCQ7QsJDjWAnOS-1" value="Employee" style="rounded=0;whiteSpace=wrap;html=1;" vertex="1" parent="1">
          <mxGeometry x="-290" y="665" width="120" height="60" as="geometry" />
        </mxCell>
        <mxCell id="vChHbSeCQ7QsJDjWAnOS-3" value="Supervisor_Id " style="ellipse;whiteSpace=wrap;html=1;" vertex="1" parent="1">
          <mxGeometry x="-40" y="500" width="120" height="80" as="geometry" />
        </mxCell>
        <mxCell id="vChHbSeCQ7QsJDjWAnOS-4" value="DateOfBirth" style="ellipse;whiteSpace=wrap;html=1;" vertex="1" parent="1">
          <mxGeometry x="-50" y="790" width="120" height="80" as="geometry" />
        </mxCell>
        <mxCell id="vChHbSeCQ7QsJDjWAnOS-5" value="Salary" style="ellipse;whiteSpace=wrap;html=1;" vertex="1" parent="1">
          <mxGeometry x="-90" y="400" width="120" height="80" as="geometry" />
        </mxCell>
        <mxCell id="vChHbSeCQ7QsJDjWAnOS-6" value="Email" style="ellipse;whiteSpace=wrap;html=1;" vertex="1" parent="1">
          <mxGeometry x="-100" y="880" width="120" height="80" as="geometry" />
        </mxCell>
        <mxCell id="vChHbSeCQ7QsJDjWAnOS-7" value="Lname" style="ellipse;whiteSpace=wrap;html=1;" vertex="1" parent="1">
          <mxGeometry x="-60" y="690" width="120" height="80" as="geometry" />
        </mxCell>
        <mxCell id="vChHbSeCQ7QsJDjWAnOS-8" value="&#xa;Fname&#xa;&#xa;" style="ellipse;whiteSpace=wrap;html=1;" vertex="1" parent="1">
          <mxGeometry x="-380" y="540" width="120" height="80" as="geometry" />
        </mxCell>
        <mxCell id="vChHbSeCQ7QsJDjWAnOS-10" value="Phone" style="ellipse;whiteSpace=wrap;html=1;" vertex="1" parent="1">
          <mxGeometry x="-40" y="600" width="120" height="80" as="geometry" />
        </mxCell>
        <mxCell id="vChHbSeCQ7QsJDjWAnOS-11" value="Emp_Id" style="ellipse;whiteSpace=wrap;html=1;" vertex="1" parent="1">
          <mxGeometry x="-465" y="655" width="120" height="80" as="geometry" />
        </mxCell>
        <mxCell id="vChHbSeCQ7QsJDjWAnOS-12" value="Address" style="ellipse;whiteSpace=wrap;html=1;" vertex="1" parent="1">
          <mxGeometry x="-210" y="460" width="120" height="80" as="geometry" />
        </mxCell>
        <mxCell id="vChHbSeCQ7QsJDjWAnOS-13" value="Bouns" style="ellipse;whiteSpace=wrap;html=1;" vertex="1" parent="1">
          <mxGeometry x="-485" y="750" width="120" height="80" as="geometry" />
        </mxCell>
        <mxCell id="vChHbSeCQ7QsJDjWAnOS-14" value="Floor" style="rounded=0;whiteSpace=wrap;html=1;" vertex="1" parent="1">
          <mxGeometry x="-550" y="360" width="120" height="60" as="geometry" />
        </mxCell>
        <mxCell id="vChHbSeCQ7QsJDjWAnOS-15" value="NumOfBlocks" style="ellipse;whiteSpace=wrap;html=1;" vertex="1" parent="1">
          <mxGeometry x="-500" y="220" width="120" height="80" as="geometry" />
        </mxCell>
        <mxCell id="vChHbSeCQ7QsJDjWAnOS-19" value="Floor_Number" style="ellipse;whiteSpace=wrap;html=1;" vertex="1" parent="1">
          <mxGeometry x="-630" y="240" width="120" height="80" as="geometry" />
        </mxCell>
        <mxCell id="vChHbSeCQ7QsJDjWAnOS-30" value="SSN" style="ellipse;whiteSpace=wrap;html=1;" vertex="1" parent="1">
          <mxGeometry x="-110" y="990" width="120" height="80" as="geometry" />
        </mxCell>
        <mxCell id="vChHbSeCQ7QsJDjWAnOS-31" value="User" style="rounded=0;whiteSpace=wrap;html=1;" vertex="1" parent="1">
          <mxGeometry x="-295" y="1000" width="130" height="60" as="geometry" />
        </mxCell>
        <mxCell id="vChHbSeCQ7QsJDjWAnOS-32" value="Email" style="ellipse;whiteSpace=wrap;html=1;" vertex="1" parent="1">
          <mxGeometry x="-160" y="1080" width="120" height="80" as="geometry" />
        </mxCell>
        <mxCell id="vChHbSeCQ7QsJDjWAnOS-33" value="Name" style="ellipse;whiteSpace=wrap;html=1;" vertex="1" parent="1">
          <mxGeometry x="-290" y="1088" width="120" height="80" as="geometry" />
        </mxCell>
        <mxCell id="vChHbSeCQ7QsJDjWAnOS-38" value="Book" style="rounded=0;whiteSpace=wrap;html=1;" vertex="1" parent="1">
          <mxGeometry x="-1020" y="990" width="130" height="60" as="geometry" />
        </mxCell>
        <mxCell id="vChHbSeCQ7QsJDjWAnOS-41" value="Book_Id" style="ellipse;whiteSpace=wrap;html=1;" vertex="1" parent="1">
          <mxGeometry x="-1170" y="950" width="120" height="80" as="geometry" />
        </mxCell>
        <mxCell id="vChHbSeCQ7QsJDjWAnOS-42" value="Title" style="ellipse;whiteSpace=wrap;html=1;" vertex="1" parent="1">
          <mxGeometry x="-1220" y="1040" width="120" height="80" as="geometry" />
        </mxCell>
        <mxCell id="vChHbSeCQ7QsJDjWAnOS-44" value="Publisher_Id" style="ellipse;whiteSpace=wrap;html=1;" vertex="1" parent="1">
          <mxGeometry x="-823" y="880" width="120" height="80" as="geometry" />
        </mxCell>
        <mxCell id="vChHbSeCQ7QsJDjWAnOS-45" value="Shelf_Code" style="ellipse;whiteSpace=wrap;html=1;" vertex="1" parent="1">
          <mxGeometry x="-1100" y="870" width="120" height="80" as="geometry" />
        </mxCell>
        <mxCell id="vChHbSeCQ7QsJDjWAnOS-47" value="Date_Borrowed" style="ellipse;whiteSpace=wrap;html=1;" vertex="1" parent="1">
          <mxGeometry x="-425" y="1050" width="120" height="80" as="geometry" />
        </mxCell>
        <mxCell id="vChHbSeCQ7QsJDjWAnOS-51" value="Due_Date" style="ellipse;whiteSpace=wrap;html=1;" vertex="1" parent="1">
          <mxGeometry x="-520" y="1110" width="120" height="80" as="geometry" />
        </mxCell>
        <mxCell id="vChHbSeCQ7QsJDjWAnOS-52" value="Amount" style="ellipse;whiteSpace=wrap;html=1;" vertex="1" parent="1">
          <mxGeometry x="-650" y="1100" width="120" height="80" as="geometry" />
        </mxCell>
        <mxCell id="vChHbSeCQ7QsJDjWAnOS-53" value="Author_Id " style="ellipse;whiteSpace=wrap;html=1;" vertex="1" parent="1">
          <mxGeometry x="-1270" y="1210" width="120" height="80" as="geometry" />
        </mxCell>
        <mxCell id="vChHbSeCQ7QsJDjWAnOS-54" value="Name" style="ellipse;whiteSpace=wrap;html=1;" vertex="1" parent="1">
          <mxGeometry x="-1170" y="1270" width="120" height="80" as="geometry" />
        </mxCell>
        <mxCell id="vChHbSeCQ7QsJDjWAnOS-55" value="Author" style="rounded=0;whiteSpace=wrap;html=1;" vertex="1" parent="1">
          <mxGeometry x="-1130" y="1190" width="130" height="60" as="geometry" />
        </mxCell>
        <mxCell id="vChHbSeCQ7QsJDjWAnOS-59" value="Publisher" style="rounded=0;whiteSpace=wrap;html=1;" vertex="1" parent="1">
          <mxGeometry x="-953" y="1190" width="130" height="60" as="geometry" />
        </mxCell>
        <mxCell id="vChHbSeCQ7QsJDjWAnOS-60" value="Publisher_Id " style="ellipse;whiteSpace=wrap;html=1;" vertex="1" parent="1">
          <mxGeometry x="-900" y="1270" width="120" height="80" as="geometry" />
        </mxCell>
        <mxCell id="vChHbSeCQ7QsJDjWAnOS-61" value="Name" style="ellipse;whiteSpace=wrap;html=1;" vertex="1" parent="1">
          <mxGeometry x="-1030" y="1260" width="120" height="80" as="geometry" />
        </mxCell>
        <mxCell id="vChHbSeCQ7QsJDjWAnOS-62" value="Category" style="rounded=0;whiteSpace=wrap;html=1;" vertex="1" parent="1">
          <mxGeometry x="-745" y="1220" width="130" height="60" as="geometry" />
        </mxCell>
        <mxCell id="vChHbSeCQ7QsJDjWAnOS-63" value="Cat_Name" style="ellipse;whiteSpace=wrap;html=1;" vertex="1" parent="1">
          <mxGeometry x="-630" y="1330" width="120" height="80" as="geometry" />
        </mxCell>
        <mxCell id="vChHbSeCQ7QsJDjWAnOS-64" value="Cat_Id" style="ellipse;whiteSpace=wrap;html=1;" vertex="1" parent="1">
          <mxGeometry x="-760" y="1330" width="120" height="80" as="geometry" />
        </mxCell>
        <mxCell id="vChHbSeCQ7QsJDjWAnOS-65" value="Shelf" style="rounded=0;whiteSpace=wrap;html=1;" vertex="1" parent="1">
          <mxGeometry x="-1020" y="670" width="130" height="60" as="geometry" />
        </mxCell>
        <mxCell id="vChHbSeCQ7QsJDjWAnOS-66" value="Floor_Number" style="ellipse;whiteSpace=wrap;html=1;" vertex="1" parent="1">
          <mxGeometry x="-1080" y="560" width="120" height="80" as="geometry" />
        </mxCell>
        <mxCell id="vChHbSeCQ7QsJDjWAnOS-67" value="Shelf_Code" style="ellipse;whiteSpace=wrap;html=1;" vertex="1" parent="1">
          <mxGeometry x="-1200" y="620" width="120" height="80" as="geometry" />
        </mxCell>
        <mxCell id="vChHbSeCQ7QsJDjWAnOS-78" value="" style="endArrow=none;html=1;rounded=0;entryX=0.75;entryY=1;entryDx=0;entryDy=0;exitX=0.337;exitY=0.075;exitDx=0;exitDy=0;exitPerimeter=0;" edge="1" parent="1" source="vChHbSeCQ7QsJDjWAnOS-6" target="vChHbSeCQ7QsJDjWAnOS-1">
          <mxGeometry width="50" height="50" relative="1" as="geometry">
            <mxPoint x="-325" y="670" as="sourcePoint" />
            <mxPoint x="-311" y="716" as="targetPoint" />
          </mxGeometry>
        </mxCell>
        <mxCell id="vChHbSeCQ7QsJDjWAnOS-79" value="" style="endArrow=none;html=1;rounded=0;entryX=0;entryY=0.5;entryDx=0;entryDy=0;exitX=0.976;exitY=0.619;exitDx=0;exitDy=0;exitPerimeter=0;" edge="1" parent="1" source="vChHbSeCQ7QsJDjWAnOS-11" target="vChHbSeCQ7QsJDjWAnOS-1">
          <mxGeometry width="50" height="50" relative="1" as="geometry">
            <mxPoint x="-345" y="710" as="sourcePoint" />
            <mxPoint x="-331" y="756" as="targetPoint" />
          </mxGeometry>
        </mxCell>
        <mxCell id="vChHbSeCQ7QsJDjWAnOS-80" value="" style="endArrow=none;html=1;rounded=0;entryX=0;entryY=0.75;entryDx=0;entryDy=0;exitX=0.676;exitY=0.05;exitDx=0;exitDy=0;exitPerimeter=0;" edge="1" parent="1" source="vChHbSeCQ7QsJDjWAnOS-13" target="vChHbSeCQ7QsJDjWAnOS-1">
          <mxGeometry width="50" height="50" relative="1" as="geometry">
            <mxPoint x="-365" y="760" as="sourcePoint" />
            <mxPoint x="-351" y="806" as="targetPoint" />
          </mxGeometry>
        </mxCell>
        <mxCell id="vChHbSeCQ7QsJDjWAnOS-81" value="" style="endArrow=none;html=1;rounded=0;entryX=0.081;entryY=0.272;entryDx=0;entryDy=0;exitX=1;exitY=0.5;exitDx=0;exitDy=0;entryPerimeter=0;" edge="1" parent="1" source="vChHbSeCQ7QsJDjWAnOS-1" target="vChHbSeCQ7QsJDjWAnOS-7">
          <mxGeometry width="50" height="50" relative="1" as="geometry">
            <mxPoint x="-85" y="660" as="sourcePoint" />
            <mxPoint x="-71" y="706" as="targetPoint" />
          </mxGeometry>
        </mxCell>
        <mxCell id="vChHbSeCQ7QsJDjWAnOS-82" value="" style="endArrow=none;html=1;rounded=0;entryX=0.75;entryY=0;entryDx=0;entryDy=0;exitX=0.719;exitY=0.972;exitDx=0;exitDy=0;exitPerimeter=0;" edge="1" parent="1" source="vChHbSeCQ7QsJDjWAnOS-5" target="vChHbSeCQ7QsJDjWAnOS-1">
          <mxGeometry width="50" height="50" relative="1" as="geometry">
            <mxPoint x="-85" y="740" as="sourcePoint" />
            <mxPoint x="-71" y="786" as="targetPoint" />
          </mxGeometry>
        </mxCell>
        <mxCell id="vChHbSeCQ7QsJDjWAnOS-83" value="" style="endArrow=none;html=1;rounded=0;exitX=0.233;exitY=0.983;exitDx=0;exitDy=0;exitPerimeter=0;entryX=0.75;entryY=0;entryDx=0;entryDy=0;" edge="1" parent="1" source="vChHbSeCQ7QsJDjWAnOS-12" target="vChHbSeCQ7QsJDjWAnOS-1">
          <mxGeometry width="50" height="50" relative="1" as="geometry">
            <mxPoint x="-135" y="624" as="sourcePoint" />
            <mxPoint x="-165" y="710" as="targetPoint" />
          </mxGeometry>
        </mxCell>
        <mxCell id="vChHbSeCQ7QsJDjWAnOS-85" value="" style="endArrow=none;html=1;rounded=0;entryX=1;entryY=0.25;entryDx=0;entryDy=0;exitX=0;exitY=0.5;exitDx=0;exitDy=0;" edge="1" parent="1" source="vChHbSeCQ7QsJDjWAnOS-10" target="vChHbSeCQ7QsJDjWAnOS-1">
          <mxGeometry width="50" height="50" relative="1" as="geometry">
            <mxPoint x="-105" y="750" as="sourcePoint" />
            <mxPoint x="-91" y="796" as="targetPoint" />
          </mxGeometry>
        </mxCell>
        <mxCell id="vChHbSeCQ7QsJDjWAnOS-86" value="" style="endArrow=none;html=1;rounded=0;entryX=1;entryY=0.75;entryDx=0;entryDy=0;exitX=0;exitY=0.5;exitDx=0;exitDy=0;" edge="1" parent="1" source="vChHbSeCQ7QsJDjWAnOS-4" target="vChHbSeCQ7QsJDjWAnOS-1">
          <mxGeometry width="50" height="50" relative="1" as="geometry">
            <mxPoint x="35" y="780" as="sourcePoint" />
            <mxPoint x="49" y="826" as="targetPoint" />
          </mxGeometry>
        </mxCell>
        <mxCell id="vChHbSeCQ7QsJDjWAnOS-88" value="" style="endArrow=none;html=1;rounded=0;entryX=0.633;entryY=0.037;entryDx=0;entryDy=0;exitX=1;exitY=1;exitDx=0;exitDy=0;entryPerimeter=0;" edge="1" parent="1" source="vChHbSeCQ7QsJDjWAnOS-15" target="vChHbSeCQ7QsJDjWAnOS-14">
          <mxGeometry width="50" height="50" relative="1" as="geometry">
            <mxPoint x="435" y="565" as="sourcePoint" />
            <mxPoint x="449" y="611" as="targetPoint" />
          </mxGeometry>
        </mxCell>
        <mxCell id="vChHbSeCQ7QsJDjWAnOS-89" value="" style="endArrow=none;html=1;rounded=0;entryX=0.25;entryY=0;entryDx=0;entryDy=0;exitX=0.958;exitY=0.703;exitDx=0;exitDy=0;exitPerimeter=0;" edge="1" parent="1" source="vChHbSeCQ7QsJDjWAnOS-19" target="vChHbSeCQ7QsJDjWAnOS-14">
          <mxGeometry width="50" height="50" relative="1" as="geometry">
            <mxPoint x="215" y="685" as="sourcePoint" />
            <mxPoint x="229" y="731" as="targetPoint" />
          </mxGeometry>
        </mxCell>
        <mxCell id="vChHbSeCQ7QsJDjWAnOS-90" value="" style="endArrow=none;html=1;rounded=0;entryX=1;entryY=0.75;entryDx=0;entryDy=0;exitX=0;exitY=0.5;exitDx=0;exitDy=0;" edge="1" parent="1" source="vChHbSeCQ7QsJDjWAnOS-30" target="vChHbSeCQ7QsJDjWAnOS-31">
          <mxGeometry width="50" height="50" relative="1" as="geometry">
            <mxPoint x="-345" y="940" as="sourcePoint" />
            <mxPoint x="-331" y="986" as="targetPoint" />
          </mxGeometry>
        </mxCell>
        <mxCell id="vChHbSeCQ7QsJDjWAnOS-93" value="" style="endArrow=none;html=1;rounded=0;exitX=0.358;exitY=0.98;exitDx=0;exitDy=0;exitPerimeter=0;entryX=0.3;entryY=0.005;entryDx=0;entryDy=0;entryPerimeter=0;" edge="1" parent="1" source="vChHbSeCQ7QsJDjWAnOS-31" target="vChHbSeCQ7QsJDjWAnOS-33">
          <mxGeometry width="50" height="50" relative="1" as="geometry">
            <mxPoint x="-665" y="920" as="sourcePoint" />
            <mxPoint x="-651" y="966" as="targetPoint" />
          </mxGeometry>
        </mxCell>
        <mxCell id="vChHbSeCQ7QsJDjWAnOS-94" value="" style="endArrow=none;html=1;rounded=0;entryX=0;entryY=0;entryDx=0;entryDy=0;exitX=0.75;exitY=1;exitDx=0;exitDy=0;" edge="1" parent="1" source="vChHbSeCQ7QsJDjWAnOS-31" target="vChHbSeCQ7QsJDjWAnOS-32">
          <mxGeometry width="50" height="50" relative="1" as="geometry">
            <mxPoint x="-485" y="1050" as="sourcePoint" />
            <mxPoint x="-471" y="1096" as="targetPoint" />
          </mxGeometry>
        </mxCell>
        <mxCell id="vChHbSeCQ7QsJDjWAnOS-101" value="" style="endArrow=none;html=1;rounded=0;entryX=0.25;entryY=0;entryDx=0;entryDy=0;exitX=0.688;exitY=0.974;exitDx=0;exitDy=0;exitPerimeter=0;" edge="1" parent="1" source="vChHbSeCQ7QsJDjWAnOS-66" target="vChHbSeCQ7QsJDjWAnOS-65">
          <mxGeometry width="50" height="50" relative="1" as="geometry">
            <mxPoint x="-1120" y="860" as="sourcePoint" />
            <mxPoint x="-1106" y="906" as="targetPoint" />
          </mxGeometry>
        </mxCell>
        <mxCell id="vChHbSeCQ7QsJDjWAnOS-102" value="" style="endArrow=none;html=1;rounded=0;entryX=0;entryY=0.5;entryDx=0;entryDy=0;exitX=0.76;exitY=0.882;exitDx=0;exitDy=0;exitPerimeter=0;" edge="1" parent="1" source="vChHbSeCQ7QsJDjWAnOS-67" target="vChHbSeCQ7QsJDjWAnOS-65">
          <mxGeometry width="50" height="50" relative="1" as="geometry">
            <mxPoint x="-1260" y="790" as="sourcePoint" />
            <mxPoint x="-1246" y="836" as="targetPoint" />
          </mxGeometry>
        </mxCell>
        <mxCell id="vChHbSeCQ7QsJDjWAnOS-103" value="" style="endArrow=none;html=1;rounded=0;entryX=0.5;entryY=1;entryDx=0;entryDy=0;exitX=0.5;exitY=0;exitDx=0;exitDy=0;" edge="1" parent="1" source="vChHbSeCQ7QsJDjWAnOS-64" target="vChHbSeCQ7QsJDjWAnOS-62">
          <mxGeometry width="50" height="50" relative="1" as="geometry">
            <mxPoint x="-670" y="290" as="sourcePoint" />
            <mxPoint x="-656" y="336" as="targetPoint" />
          </mxGeometry>
        </mxCell>
        <mxCell id="vChHbSeCQ7QsJDjWAnOS-105" value="" style="endArrow=none;html=1;rounded=0;entryX=0.75;entryY=1;entryDx=0;entryDy=0;exitX=0.233;exitY=0.08;exitDx=0;exitDy=0;exitPerimeter=0;" edge="1" parent="1" source="vChHbSeCQ7QsJDjWAnOS-63" target="vChHbSeCQ7QsJDjWAnOS-62">
          <mxGeometry width="50" height="50" relative="1" as="geometry">
            <mxPoint x="-590" y="290" as="sourcePoint" />
            <mxPoint x="-576" y="336" as="targetPoint" />
          </mxGeometry>
        </mxCell>
        <mxCell id="vChHbSeCQ7QsJDjWAnOS-106" value="" style="endArrow=none;html=1;rounded=0;entryX=0.045;entryY=0.26;entryDx=0;entryDy=0;exitX=1;exitY=1;exitDx=0;exitDy=0;entryPerimeter=0;" edge="1" parent="1" source="vChHbSeCQ7QsJDjWAnOS-167" target="vChHbSeCQ7QsJDjWAnOS-47">
          <mxGeometry width="50" height="50" relative="1" as="geometry">
            <mxPoint x="-193.55999999999995" y="1189.76" as="sourcePoint" />
            <mxPoint x="-126" y="1326" as="targetPoint" />
          </mxGeometry>
        </mxCell>
        <mxCell id="vChHbSeCQ7QsJDjWAnOS-107" value="" style="endArrow=none;html=1;rounded=0;entryX=0.637;entryY=0.883;entryDx=0;entryDy=0;exitX=0.27;exitY=0.09;exitDx=0;exitDy=0;exitPerimeter=0;entryPerimeter=0;" edge="1" parent="1" source="vChHbSeCQ7QsJDjWAnOS-51" target="vChHbSeCQ7QsJDjWAnOS-167">
          <mxGeometry width="50" height="50" relative="1" as="geometry">
            <mxPoint x="-310" y="1240" as="sourcePoint" />
            <mxPoint x="-270" y="1175" as="targetPoint" />
          </mxGeometry>
        </mxCell>
        <mxCell id="vChHbSeCQ7QsJDjWAnOS-108" value="" style="endArrow=none;html=1;rounded=0;entryX=0;entryY=1;entryDx=0;entryDy=0;exitX=0.5;exitY=0;exitDx=0;exitDy=0;" edge="1" parent="1" source="vChHbSeCQ7QsJDjWAnOS-52" target="vChHbSeCQ7QsJDjWAnOS-167">
          <mxGeometry width="50" height="50" relative="1" as="geometry">
            <mxPoint x="-350" y="1160" as="sourcePoint" />
            <mxPoint x="-336" y="1206" as="targetPoint" />
          </mxGeometry>
        </mxCell>
        <mxCell id="vChHbSeCQ7QsJDjWAnOS-113" value="" style="endArrow=none;html=1;rounded=0;entryX=0.75;entryY=1;entryDx=0;entryDy=0;exitX=0.5;exitY=0;exitDx=0;exitDy=0;" edge="1" parent="1" source="vChHbSeCQ7QsJDjWAnOS-60" target="vChHbSeCQ7QsJDjWAnOS-59">
          <mxGeometry width="50" height="50" relative="1" as="geometry">
            <mxPoint x="-775" y="1190" as="sourcePoint" />
            <mxPoint x="-761" y="1236" as="targetPoint" />
          </mxGeometry>
        </mxCell>
        <mxCell id="vChHbSeCQ7QsJDjWAnOS-114" value="" style="endArrow=none;html=1;rounded=0;entryX=0.337;entryY=0.971;entryDx=0;entryDy=0;exitX=1;exitY=0;exitDx=0;exitDy=0;entryPerimeter=0;" edge="1" parent="1" source="vChHbSeCQ7QsJDjWAnOS-61" target="vChHbSeCQ7QsJDjWAnOS-59">
          <mxGeometry width="50" height="50" relative="1" as="geometry">
            <mxPoint x="-925" y="1160" as="sourcePoint" />
            <mxPoint x="-911" y="1206" as="targetPoint" />
          </mxGeometry>
        </mxCell>
        <mxCell id="vChHbSeCQ7QsJDjWAnOS-115" value="" style="endArrow=none;html=1;rounded=0;entryX=0;entryY=0.75;entryDx=0;entryDy=0;exitX=0.654;exitY=0.995;exitDx=0;exitDy=0;exitPerimeter=0;" edge="1" parent="1" source="vChHbSeCQ7QsJDjWAnOS-41" target="vChHbSeCQ7QsJDjWAnOS-38">
          <mxGeometry width="50" height="50" relative="1" as="geometry">
            <mxPoint x="-1020" y="850" as="sourcePoint" />
            <mxPoint x="-1006" y="896" as="targetPoint" />
          </mxGeometry>
        </mxCell>
        <mxCell id="vChHbSeCQ7QsJDjWAnOS-116" value="" style="endArrow=none;html=1;rounded=0;entryX=0.897;entryY=0.159;entryDx=0;entryDy=0;exitX=0.55;exitY=0.994;exitDx=0;exitDy=0;exitPerimeter=0;entryPerimeter=0;" edge="1" parent="1" source="vChHbSeCQ7QsJDjWAnOS-38" target="vChHbSeCQ7QsJDjWAnOS-42">
          <mxGeometry width="50" height="50" relative="1" as="geometry">
            <mxPoint x="-810" y="790" as="sourcePoint" />
            <mxPoint x="-796" y="836" as="targetPoint" />
          </mxGeometry>
        </mxCell>
        <mxCell id="vChHbSeCQ7QsJDjWAnOS-117" value="" style="endArrow=none;html=1;rounded=0;entryX=1;entryY=0.75;entryDx=0;entryDy=0;exitX=0.085;exitY=0.847;exitDx=0;exitDy=0;exitPerimeter=0;" edge="1" parent="1" source="vChHbSeCQ7QsJDjWAnOS-44" target="vChHbSeCQ7QsJDjWAnOS-38">
          <mxGeometry width="50" height="50" relative="1" as="geometry">
            <mxPoint x="-1060" y="870" as="sourcePoint" />
            <mxPoint x="-1046" y="916" as="targetPoint" />
          </mxGeometry>
        </mxCell>
        <mxCell id="vChHbSeCQ7QsJDjWAnOS-118" value="" style="endArrow=none;html=1;rounded=0;entryX=1;entryY=0.25;entryDx=0;entryDy=0;exitX=0.5;exitY=1;exitDx=0;exitDy=0;" edge="1" parent="1" source="vChHbSeCQ7QsJDjWAnOS-43" target="vChHbSeCQ7QsJDjWAnOS-38">
          <mxGeometry width="50" height="50" relative="1" as="geometry">
            <mxPoint x="-700" y="720" as="sourcePoint" />
            <mxPoint x="-686" y="766" as="targetPoint" />
          </mxGeometry>
        </mxCell>
        <mxCell id="vChHbSeCQ7QsJDjWAnOS-119" value="" style="endArrow=none;html=1;rounded=0;entryX=0.25;entryY=0;entryDx=0;entryDy=0;exitX=0.637;exitY=0.96;exitDx=0;exitDy=0;exitPerimeter=0;" edge="1" parent="1" source="vChHbSeCQ7QsJDjWAnOS-45" target="vChHbSeCQ7QsJDjWAnOS-38">
          <mxGeometry width="50" height="50" relative="1" as="geometry">
            <mxPoint x="-920" y="700" as="sourcePoint" />
            <mxPoint x="-906" y="746" as="targetPoint" />
          </mxGeometry>
        </mxCell>
        <mxCell id="vChHbSeCQ7QsJDjWAnOS-125" value="" style="endArrow=none;html=1;rounded=0;entryX=0;entryY=0.75;entryDx=0;entryDy=0;exitX=0.963;exitY=0.25;exitDx=0;exitDy=0;exitPerimeter=0;" edge="1" parent="1" source="vChHbSeCQ7QsJDjWAnOS-53" target="vChHbSeCQ7QsJDjWAnOS-55">
          <mxGeometry width="50" height="50" relative="1" as="geometry">
            <mxPoint x="-970" y="1029.76" as="sourcePoint" />
            <mxPoint x="-956" y="1075.76" as="targetPoint" />
          </mxGeometry>
        </mxCell>
        <mxCell id="vChHbSeCQ7QsJDjWAnOS-126" value="" style="endArrow=none;html=1;rounded=0;entryX=0.25;entryY=1;entryDx=0;entryDy=0;exitX=0.631;exitY=0.024;exitDx=0;exitDy=0;exitPerimeter=0;" edge="1" parent="1" source="vChHbSeCQ7QsJDjWAnOS-54" target="vChHbSeCQ7QsJDjWAnOS-55">
          <mxGeometry width="50" height="50" relative="1" as="geometry">
            <mxPoint x="-1100" y="1089.76" as="sourcePoint" />
            <mxPoint x="-1086" y="1135.76" as="targetPoint" />
          </mxGeometry>
        </mxCell>
        <mxCell id="vChHbSeCQ7QsJDjWAnOS-147" value="supervises" style="shape=rhombus;perimeter=rhombusPerimeter;whiteSpace=wrap;html=1;align=center;" vertex="1" parent="1">
          <mxGeometry x="-260" y="800" width="120" height="60" as="geometry" />
        </mxCell>
        <mxCell id="vChHbSeCQ7QsJDjWAnOS-150" value="" style="endArrow=none;html=1;rounded=0;entryX=0.553;entryY=0.975;entryDx=0;entryDy=0;exitX=0.5;exitY=0;exitDx=0;exitDy=0;entryPerimeter=0;" edge="1" parent="1" source="vChHbSeCQ7QsJDjWAnOS-147" target="vChHbSeCQ7QsJDjWAnOS-1">
          <mxGeometry width="50" height="50" relative="1" as="geometry">
            <mxPoint x="-70" y="955" as="sourcePoint" />
            <mxPoint x="-120" y="900" as="targetPoint" />
          </mxGeometry>
        </mxCell>
        <mxCell id="vChHbSeCQ7QsJDjWAnOS-151" value="" style="endArrow=none;html=1;rounded=0;entryX=0.347;entryY=0.963;entryDx=0;entryDy=0;exitX=0;exitY=0.5;exitDx=0;exitDy=0;entryPerimeter=0;" edge="1" parent="1" source="vChHbSeCQ7QsJDjWAnOS-147" target="vChHbSeCQ7QsJDjWAnOS-1">
          <mxGeometry width="50" height="50" relative="1" as="geometry">
            <mxPoint x="-200" y="955" as="sourcePoint" />
            <mxPoint x="-250" y="900" as="targetPoint" />
          </mxGeometry>
        </mxCell>
        <mxCell id="vChHbSeCQ7QsJDjWAnOS-152" value="managed_by " style="shape=rhombus;perimeter=rhombusPerimeter;whiteSpace=wrap;html=1;align=center;" vertex="1" parent="1">
          <mxGeometry x="-630" y="480" width="120" height="60" as="geometry" />
        </mxCell>
        <mxCell id="vChHbSeCQ7QsJDjWAnOS-154" value="" style="endArrow=none;html=1;rounded=0;entryX=0.653;entryY=0.113;entryDx=0;entryDy=0;exitX=0.153;exitY=1.033;exitDx=0;exitDy=0;exitPerimeter=0;entryPerimeter=0;shape=link;" edge="1" parent="1" source="vChHbSeCQ7QsJDjWAnOS-14" target="vChHbSeCQ7QsJDjWAnOS-152">
          <mxGeometry width="50" height="50" relative="1" as="geometry">
            <mxPoint x="255" y="770" as="sourcePoint" />
            <mxPoint x="90" y="720" as="targetPoint" />
          </mxGeometry>
        </mxCell>
        <mxCell id="vChHbSeCQ7QsJDjWAnOS-157" value="" style="endArrow=none;html=1;rounded=0;entryX=1;entryY=1;entryDx=0;entryDy=0;exitX=0;exitY=0.25;exitDx=0;exitDy=0;" edge="1" parent="1" source="vChHbSeCQ7QsJDjWAnOS-1" target="vChHbSeCQ7QsJDjWAnOS-152">
          <mxGeometry width="50" height="50" relative="1" as="geometry">
            <mxPoint x="375" y="830" as="sourcePoint" />
            <mxPoint x="200" y="920" as="targetPoint" />
          </mxGeometry>
        </mxCell>
        <mxCell id="vChHbSeCQ7QsJDjWAnOS-158" value="has " style="shape=rhombus;perimeter=rhombusPerimeter;whiteSpace=wrap;html=1;align=center;" vertex="1" parent="1">
          <mxGeometry x="-345" y="340" width="120" height="60" as="geometry" />
        </mxCell>
        <mxCell id="vChHbSeCQ7QsJDjWAnOS-159" value="" style="endArrow=none;html=1;rounded=0;entryX=0;entryY=0.5;entryDx=0;entryDy=0;exitX=1;exitY=0.5;exitDx=0;exitDy=0;" edge="1" parent="1" target="vChHbSeCQ7QsJDjWAnOS-158" source="vChHbSeCQ7QsJDjWAnOS-14">
          <mxGeometry width="50" height="50" relative="1" as="geometry">
            <mxPoint x="650" y="840" as="sourcePoint" />
            <mxPoint x="455" y="875" as="targetPoint" />
          </mxGeometry>
        </mxCell>
        <mxCell id="vChHbSeCQ7QsJDjWAnOS-160" value="" style="endArrow=none;html=1;rounded=0;entryX=0.5;entryY=1;entryDx=0;entryDy=0;exitX=0.567;exitY=0.043;exitDx=0;exitDy=0;exitPerimeter=0;shape=link;" edge="1" parent="1" target="vChHbSeCQ7QsJDjWAnOS-158" source="vChHbSeCQ7QsJDjWAnOS-1">
          <mxGeometry width="50" height="50" relative="1" as="geometry">
            <mxPoint x="220" y="895" as="sourcePoint" />
            <mxPoint x="565" y="1075" as="targetPoint" />
          </mxGeometry>
        </mxCell>
        <mxCell id="vChHbSeCQ7QsJDjWAnOS-161" value="" style="endArrow=none;html=1;rounded=0;entryX=0.5;entryY=0;entryDx=0;entryDy=0;exitX=1;exitY=1;exitDx=0;exitDy=0;" edge="1" parent="1" source="vChHbSeCQ7QsJDjWAnOS-8" target="vChHbSeCQ7QsJDjWAnOS-1">
          <mxGeometry width="50" height="50" relative="1" as="geometry">
            <mxPoint x="-210.28" y="604.76" as="sourcePoint" />
            <mxPoint x="-228.28" y="673.76" as="targetPoint" />
          </mxGeometry>
        </mxCell>
        <mxCell id="vChHbSeCQ7QsJDjWAnOS-163" value="records " style="shape=rhombus;perimeter=rhombusPerimeter;whiteSpace=wrap;html=1;align=center;" vertex="1" parent="1">
          <mxGeometry x="-365" y="870" width="120" height="60" as="geometry" />
        </mxCell>
        <mxCell id="vChHbSeCQ7QsJDjWAnOS-164" value="" style="endArrow=none;html=1;rounded=0;entryX=0.167;entryY=1;entryDx=0;entryDy=0;exitX=0.5;exitY=0;exitDx=0;exitDy=0;entryPerimeter=0;shape=link;" edge="1" parent="1" source="vChHbSeCQ7QsJDjWAnOS-163" target="vChHbSeCQ7QsJDjWAnOS-1">
          <mxGeometry width="50" height="50" relative="1" as="geometry">
            <mxPoint x="-300" y="888.5" as="sourcePoint" />
            <mxPoint x="-286" y="831.5" as="targetPoint" />
          </mxGeometry>
        </mxCell>
        <mxCell id="vChHbSeCQ7QsJDjWAnOS-165" value="" style="endArrow=none;html=1;rounded=0;entryX=0.845;entryY=-0.047;entryDx=0;entryDy=0;exitX=0.885;exitY=0.667;exitDx=0;exitDy=0;exitPerimeter=0;entryPerimeter=0;" edge="1" parent="1" source="vChHbSeCQ7QsJDjWAnOS-163" target="vChHbSeCQ7QsJDjWAnOS-31">
          <mxGeometry width="50" height="50" relative="1" as="geometry">
            <mxPoint x="-405" y="970" as="sourcePoint" />
            <mxPoint x="-410" y="1011" as="targetPoint" />
          </mxGeometry>
        </mxCell>
        <mxCell id="vChHbSeCQ7QsJDjWAnOS-167" value="borrows  " style="shape=rhombus;perimeter=rhombusPerimeter;whiteSpace=wrap;html=1;align=center;" vertex="1" parent="1">
          <mxGeometry x="-600" y="1013" width="120" height="60" as="geometry" />
        </mxCell>
        <mxCell id="vChHbSeCQ7QsJDjWAnOS-168" value="" style="endArrow=none;html=1;rounded=0;entryX=0;entryY=0.5;entryDx=0;entryDy=0;exitX=1;exitY=0.75;exitDx=0;exitDy=0;" edge="1" parent="1" source="vChHbSeCQ7QsJDjWAnOS-38" target="vChHbSeCQ7QsJDjWAnOS-167">
          <mxGeometry width="50" height="50" relative="1" as="geometry">
            <mxPoint x="-640" y="870" as="sourcePoint" />
            <mxPoint x="-634" y="913" as="targetPoint" />
          </mxGeometry>
        </mxCell>
        <mxCell id="vChHbSeCQ7QsJDjWAnOS-169" value="" style="endArrow=none;html=1;rounded=0;entryX=0;entryY=0.25;entryDx=0;entryDy=0;exitX=1;exitY=0.5;exitDx=0;exitDy=0;" edge="1" parent="1" source="vChHbSeCQ7QsJDjWAnOS-167" target="vChHbSeCQ7QsJDjWAnOS-31">
          <mxGeometry width="50" height="50" relative="1" as="geometry">
            <mxPoint x="-670" y="930" as="sourcePoint" />
            <mxPoint x="-664" y="973" as="targetPoint" />
          </mxGeometry>
        </mxCell>
        <mxCell id="vChHbSeCQ7QsJDjWAnOS-170" value="" style="endArrow=none;html=1;rounded=0;exitX=0.563;exitY=1.013;exitDx=0;exitDy=0;entryX=0.434;entryY=-0.04;entryDx=0;entryDy=0;entryPerimeter=0;exitPerimeter=0;shape=link;" edge="1" source="vChHbSeCQ7QsJDjWAnOS-171" parent="1" target="vChHbSeCQ7QsJDjWAnOS-38">
          <mxGeometry width="50" height="50" relative="1" as="geometry">
            <mxPoint x="-1296.8600000000001" y="1018.04" as="sourcePoint" />
            <mxPoint x="-1483.9999999999998" y="1129.9999999999998" as="targetPoint" />
          </mxGeometry>
        </mxCell>
        <mxCell id="vChHbSeCQ7QsJDjWAnOS-171" value="stores  " style="shape=rhombus;perimeter=rhombusPerimeter;whiteSpace=wrap;html=1;align=center;" vertex="1" parent="1">
          <mxGeometry x="-1040.0000000000002" y="770" width="120" height="60" as="geometry" />
        </mxCell>
        <mxCell id="vChHbSeCQ7QsJDjWAnOS-172" value="" style="endArrow=none;html=1;rounded=0;entryX=0.307;entryY=0.171;entryDx=0;entryDy=0;exitX=0.25;exitY=1;exitDx=0;exitDy=0;entryPerimeter=0;" edge="1" target="vChHbSeCQ7QsJDjWAnOS-171" parent="1" source="vChHbSeCQ7QsJDjWAnOS-65">
          <mxGeometry width="50" height="50" relative="1" as="geometry">
            <mxPoint x="-1274.69" y="818.28" as="sourcePoint" />
            <mxPoint x="-1260.8600000000001" y="1001.04" as="targetPoint" />
          </mxGeometry>
        </mxCell>
        <mxCell id="vChHbSeCQ7QsJDjWAnOS-173" value="" style="endArrow=none;html=1;rounded=0;entryX=0.307;entryY=0.171;entryDx=0;entryDy=0;exitX=0.875;exitY=1.041;exitDx=0;exitDy=0;exitPerimeter=0;entryPerimeter=0;shape=link;" edge="1" target="vChHbSeCQ7QsJDjWAnOS-174" parent="1" source="vChHbSeCQ7QsJDjWAnOS-38">
          <mxGeometry width="50" height="50" relative="1" as="geometry">
            <mxPoint x="-794.83" y="748.6199999999999" as="sourcePoint" />
            <mxPoint x="-704" y="983" as="targetPoint" />
          </mxGeometry>
        </mxCell>
        <mxCell id="vChHbSeCQ7QsJDjWAnOS-174" value="publishes  " style="shape=rhombus;perimeter=rhombusPerimeter;whiteSpace=wrap;html=1;align=center;" vertex="1" parent="1">
          <mxGeometry x="-930" y="1110" width="120" height="60" as="geometry" />
        </mxCell>
        <mxCell id="vChHbSeCQ7QsJDjWAnOS-175" value="" style="endArrow=none;html=1;rounded=0;exitX=0.5;exitY=1;exitDx=0;exitDy=0;entryX=0.678;entryY=-0.035;entryDx=0;entryDy=0;entryPerimeter=0;" edge="1" source="vChHbSeCQ7QsJDjWAnOS-174" parent="1" target="vChHbSeCQ7QsJDjWAnOS-59">
          <mxGeometry width="50" height="50" relative="1" as="geometry">
            <mxPoint x="-740" y="1000" as="sourcePoint" />
            <mxPoint x="-860" y="1060" as="targetPoint" />
          </mxGeometry>
        </mxCell>
        <mxCell id="vChHbSeCQ7QsJDjWAnOS-176" value="" style="endArrow=none;html=1;rounded=0;entryX=0.66;entryY=0.92;entryDx=0;entryDy=0;exitX=0.202;exitY=0.06;exitDx=0;exitDy=0;entryPerimeter=0;exitPerimeter=0;" edge="1" target="vChHbSeCQ7QsJDjWAnOS-177" parent="1" source="vChHbSeCQ7QsJDjWAnOS-62">
          <mxGeometry width="50" height="50" relative="1" as="geometry">
            <mxPoint x="-804.83" y="320.7199999999999" as="sourcePoint" />
            <mxPoint x="-714" y="555.1" as="targetPoint" />
          </mxGeometry>
        </mxCell>
        <mxCell id="vChHbSeCQ7QsJDjWAnOS-177" value="classifies  " style="shape=rhombus;perimeter=rhombusPerimeter;whiteSpace=wrap;html=1;align=center;" vertex="1" parent="1">
          <mxGeometry x="-810" y="1130" width="120" height="60" as="geometry" />
        </mxCell>
        <mxCell id="vChHbSeCQ7QsJDjWAnOS-179" value="" style="endArrow=none;html=1;rounded=0;exitX=0;exitY=0.5;exitDx=0;exitDy=0;entryX=0.677;entryY=0.113;entryDx=0;entryDy=0;entryPerimeter=0;" edge="1" target="vChHbSeCQ7QsJDjWAnOS-180" parent="1" source="vChHbSeCQ7QsJDjWAnOS-14">
          <mxGeometry width="50" height="50" relative="1" as="geometry">
            <mxPoint x="-1410.78" y="534.02" as="sourcePoint" />
            <mxPoint x="-1414.64" y="675.06" as="targetPoint" />
          </mxGeometry>
        </mxCell>
        <mxCell id="vChHbSeCQ7QsJDjWAnOS-180" value="has  " style="shape=rhombus;perimeter=rhombusPerimeter;whiteSpace=wrap;html=1;align=center;" vertex="1" parent="1">
          <mxGeometry x="-840.0000000000002" y="480" width="120" height="60" as="geometry" />
        </mxCell>
        <mxCell id="vChHbSeCQ7QsJDjWAnOS-181" value="" style="endArrow=none;html=1;rounded=0;exitX=0.31;exitY=0.78;exitDx=0;exitDy=0;entryX=1;entryY=0;entryDx=0;entryDy=0;exitPerimeter=0;shape=link;" edge="1" source="vChHbSeCQ7QsJDjWAnOS-180" parent="1" target="vChHbSeCQ7QsJDjWAnOS-65">
          <mxGeometry width="50" height="50" relative="1" as="geometry">
            <mxPoint x="-1450.64" y="692.06" as="sourcePoint" />
            <mxPoint x="-969.78" y="450.02" as="targetPoint" />
          </mxGeometry>
        </mxCell>
        <mxCell id="vChHbSeCQ7QsJDjWAnOS-182" value="" style="endArrow=none;html=1;rounded=0;entryX=0.56;entryY=0.033;entryDx=0;entryDy=0;exitX=0.75;exitY=1;exitDx=0;exitDy=0;entryPerimeter=0;" edge="1" target="vChHbSeCQ7QsJDjWAnOS-184" parent="1" source="vChHbSeCQ7QsJDjWAnOS-38">
          <mxGeometry width="50" height="50" relative="1" as="geometry">
            <mxPoint x="-819.84" y="710.62" as="sourcePoint" />
            <mxPoint x="-792" y="945" as="targetPoint" />
          </mxGeometry>
        </mxCell>
        <mxCell id="vChHbSeCQ7QsJDjWAnOS-183" value="" style="endArrow=none;html=1;rounded=0;exitX=0.5;exitY=1;exitDx=0;exitDy=0;entryX=0.56;entryY=-0.013;entryDx=0;entryDy=0;entryPerimeter=0;" edge="1" source="vChHbSeCQ7QsJDjWAnOS-184" parent="1" target="vChHbSeCQ7QsJDjWAnOS-55">
          <mxGeometry width="50" height="50" relative="1" as="geometry">
            <mxPoint x="-828" y="962.0000000000001" as="sourcePoint" />
            <mxPoint x="-970" y="1140" as="targetPoint" />
          </mxGeometry>
        </mxCell>
        <mxCell id="vChHbSeCQ7QsJDjWAnOS-184" value="has" style="shape=rhombus;perimeter=rhombusPerimeter;whiteSpace=wrap;html=1;align=center;" vertex="1" parent="1">
          <mxGeometry x="-1110" y="1100" width="120" height="60" as="geometry" />
        </mxCell>
        <mxCell id="vChHbSeCQ7QsJDjWAnOS-187" value="" style="endArrow=none;html=1;rounded=0;exitX=0;exitY=0;exitDx=0;exitDy=0;entryX=1;entryY=1;entryDx=0;entryDy=0;shape=link;" edge="1" parent="1" source="vChHbSeCQ7QsJDjWAnOS-177" target="vChHbSeCQ7QsJDjWAnOS-38">
          <mxGeometry width="50" height="50" relative="1" as="geometry">
            <mxPoint x="-820" y="650" as="sourcePoint" />
            <mxPoint x="-955" y="990" as="targetPoint" />
          </mxGeometry>
        </mxCell>
        <mxCell id="vChHbSeCQ7QsJDjWAnOS-43" value="Cat_Id" style="ellipse;whiteSpace=wrap;html=1;" vertex="1" parent="1">
          <mxGeometry x="-943" y="860" width="120" height="80" as="geometry" />
        </mxCell>
        <mxCell id="vChHbSeCQ7QsJDjWAnOS-188" value="" style="endArrow=none;html=1;rounded=0;entryX=0.077;entryY=0.805;entryDx=0;entryDy=0;exitX=0.887;exitY=0.03;exitDx=0;exitDy=0;entryPerimeter=0;exitPerimeter=0;" edge="1" parent="1" source="vChHbSeCQ7QsJDjWAnOS-1" target="vChHbSeCQ7QsJDjWAnOS-3">
          <mxGeometry width="50" height="50" relative="1" as="geometry">
            <mxPoint x="240" y="730" as="sourcePoint" />
            <mxPoint x="120" y="610" as="targetPoint" />
          </mxGeometry>
        </mxCell>
        <mxCell id="vChHbSeCQ7QsJDjWAnOS-189" value="1" style="text;html=1;align=center;verticalAlign=middle;resizable=0;points=[];autosize=1;strokeColor=none;fillColor=none;" vertex="1" parent="1">
          <mxGeometry x="-245" y="718" width="30" height="30" as="geometry" />
        </mxCell>
        <mxCell id="vChHbSeCQ7QsJDjWAnOS-190" value="m" style="text;html=1;align=center;verticalAlign=middle;resizable=0;points=[];autosize=1;strokeColor=none;fillColor=none;" vertex="1" parent="1">
          <mxGeometry x="-260" y="720" width="30" height="30" as="geometry" />
        </mxCell>
        <mxCell id="vChHbSeCQ7QsJDjWAnOS-192" value="1" style="text;html=1;align=center;verticalAlign=middle;resizable=0;points=[];autosize=1;strokeColor=none;fillColor=none;" vertex="1" parent="1">
          <mxGeometry x="-320" y="640" width="30" height="30" as="geometry" />
        </mxCell>
        <mxCell id="vChHbSeCQ7QsJDjWAnOS-193" value="1" style="text;html=1;align=center;verticalAlign=middle;resizable=0;points=[];autosize=1;strokeColor=none;fillColor=none;" vertex="1" parent="1">
          <mxGeometry x="-540" y="420" width="30" height="30" as="geometry" />
        </mxCell>
        <mxCell id="vChHbSeCQ7QsJDjWAnOS-194" value="1" style="text;html=1;align=center;verticalAlign=middle;resizable=0;points=[];autosize=1;strokeColor=none;fillColor=none;" vertex="1" parent="1">
          <mxGeometry x="-435" y="348" width="30" height="30" as="geometry" />
        </mxCell>
        <mxCell id="vChHbSeCQ7QsJDjWAnOS-196" value="m" style="text;html=1;align=center;verticalAlign=middle;resizable=0;points=[];autosize=1;strokeColor=none;fillColor=none;" vertex="1" parent="1">
          <mxGeometry x="-230" y="635" width="30" height="30" as="geometry" />
        </mxCell>
        <mxCell id="vChHbSeCQ7QsJDjWAnOS-197" value="1" style="text;html=1;align=center;verticalAlign=middle;resizable=0;points=[];autosize=1;strokeColor=none;fillColor=none;" vertex="1" parent="1">
          <mxGeometry x="-305" y="728" width="30" height="30" as="geometry" />
        </mxCell>
        <mxCell id="vChHbSeCQ7QsJDjWAnOS-198" value="m" style="text;html=1;align=center;verticalAlign=middle;resizable=0;points=[];autosize=1;strokeColor=none;fillColor=none;" vertex="1" parent="1">
          <mxGeometry x="-185" y="975" width="30" height="30" as="geometry" />
        </mxCell>
        <mxCell id="vChHbSeCQ7QsJDjWAnOS-200" value="m" style="text;html=1;align=center;verticalAlign=middle;resizable=0;points=[];autosize=1;strokeColor=none;fillColor=none;" vertex="1" parent="1">
          <mxGeometry x="-955" y="1058" width="30" height="30" as="geometry" />
        </mxCell>
        <mxCell id="vChHbSeCQ7QsJDjWAnOS-201" value="m" style="text;html=1;align=center;verticalAlign=middle;resizable=0;points=[];autosize=1;strokeColor=none;fillColor=none;" vertex="1" parent="1">
          <mxGeometry x="-1055" y="1168" width="30" height="30" as="geometry" />
        </mxCell>
        <mxCell id="vChHbSeCQ7QsJDjWAnOS-202" value="1" style="text;html=1;align=center;verticalAlign=middle;resizable=0;points=[];autosize=1;strokeColor=none;fillColor=none;" vertex="1" parent="1">
          <mxGeometry x="-595" y="358" width="30" height="30" as="geometry" />
        </mxCell>
        <mxCell id="vChHbSeCQ7QsJDjWAnOS-203" value="m" style="text;html=1;align=center;verticalAlign=middle;resizable=0;points=[];autosize=1;strokeColor=none;fillColor=none;" vertex="1" parent="1">
          <mxGeometry x="-925" y="618" width="30" height="30" as="geometry" />
        </mxCell>
        <mxCell id="vChHbSeCQ7QsJDjWAnOS-204" value="1" style="text;html=1;align=center;verticalAlign=middle;resizable=0;points=[];autosize=1;strokeColor=none;fillColor=none;" vertex="1" parent="1">
          <mxGeometry x="-985" y="728" width="30" height="30" as="geometry" />
        </mxCell>
        <mxCell id="vChHbSeCQ7QsJDjWAnOS-205" value="m" style="text;html=1;align=center;verticalAlign=middle;resizable=0;points=[];autosize=1;strokeColor=none;fillColor=none;" vertex="1" parent="1">
          <mxGeometry x="-955" y="958" width="30" height="30" as="geometry" />
        </mxCell>
        <mxCell id="vChHbSeCQ7QsJDjWAnOS-206" value="1" style="text;html=1;align=center;verticalAlign=middle;resizable=0;points=[];autosize=1;strokeColor=none;fillColor=none;" vertex="1" parent="1">
          <mxGeometry x="-730" y="1190" width="30" height="30" as="geometry" />
        </mxCell>
        <mxCell id="vChHbSeCQ7QsJDjWAnOS-207" value="m" style="text;html=1;align=center;verticalAlign=middle;resizable=0;points=[];autosize=1;strokeColor=none;fillColor=none;" vertex="1" parent="1">
          <mxGeometry x="-885" y="1028" width="30" height="30" as="geometry" />
        </mxCell>
        <mxCell id="vChHbSeCQ7QsJDjWAnOS-208" value="1" style="text;html=1;align=center;verticalAlign=middle;resizable=0;points=[];autosize=1;strokeColor=none;fillColor=none;" vertex="1" parent="1">
          <mxGeometry x="-915" y="1158" width="30" height="30" as="geometry" />
        </mxCell>
        <mxCell id="vChHbSeCQ7QsJDjWAnOS-209" value="m" style="text;html=1;align=center;verticalAlign=middle;resizable=0;points=[];autosize=1;strokeColor=none;fillColor=none;" vertex="1" parent="1">
          <mxGeometry x="-935" y="1048" width="30" height="30" as="geometry" />
        </mxCell>
        <mxCell id="vChHbSeCQ7QsJDjWAnOS-210" value="m" style="text;html=1;align=center;verticalAlign=middle;resizable=0;points=[];autosize=1;strokeColor=none;fillColor=none;" vertex="1" parent="1">
          <mxGeometry x="-320" y="988" width="30" height="30" as="geometry" />
        </mxCell>
        <mxCell id="vChHbSeCQ7QsJDjWAnOS-211" value="m" style="text;html=1;align=center;verticalAlign=middle;resizable=0;points=[];autosize=1;strokeColor=none;fillColor=none;" vertex="1" parent="1">
          <mxGeometry x="-875" y="1008" width="30" height="30" as="geometry" />
        </mxCell>
        <mxCell id="vChHbSeCQ7QsJDjWAnOS-213" value="" style="endArrow=none;html=1;rounded=0;entryX=0;entryY=1;entryDx=0;entryDy=0;exitX=0.5;exitY=0;exitDx=0;exitDy=0;shape=link;" edge="1" parent="1" source="vChHbSeCQ7QsJDjWAnOS-167" target="vChHbSeCQ7QsJDjWAnOS-1">
          <mxGeometry width="50" height="50" relative="1" as="geometry">
            <mxPoint x="-460" y="1013" as="sourcePoint" />
            <mxPoint x="-425" y="868" as="targetPoint" />
          </mxGeometry>
        </mxCell>
      </root>
    </mxGraphModel>
  </diagram>
</mxfile>
